<svg width="1080" height="1080" viewBox="0 0 1080 1080" fill="none" xmlns="http://www.w3.org/2000/svg">
  <path
    d="M539.265 601.114C573.417 601.114 601.103 573.428 601.103 539.276C601.103 505.123 573.417 477.438 539.265 477.438C505.112 477.438 477.426 505.123 477.426 539.276C477.426 573.428 505.112 601.114 539.265 601.114Z"
    fill="#00D8FF" />
  <path fill-rule="evenodd" clip-rule="evenodd"
    d="M539.738 342.406C669.473 342.406 789.995 361.022 880.867 392.306C990.355 430 1057.67 487.135 1057.67 538.87C1057.67 592.782 986.33 653.48 868.754 692.436C779.863 721.886 662.89 737.261 539.738 737.261C413.473 737.261 293.907 722.83 204.015 692.112C90.2855 653.239 21.785 591.756 21.785 538.87C21.785 487.555 86.0596 430.861 194.009 393.225C285.22 361.425 408.717 342.406 539.72 342.406H539.738Z"
    stroke="#00D8FF" stroke-width="30" />
  <path fill-rule="evenodd" clip-rule="evenodd"
    d="M368.712 441.192C433.526 328.806 509.858 233.702 582.357 170.61C669.707 94.5942 752.832 64.824 797.647 90.6668C844.352 117.6 861.29 209.728 836.299 331.039C817.423 422.757 772.286 531.764 710.762 638.447C647.681 747.828 575.452 844.195 503.941 906.702C413.452 985.804 325.967 1014.43 280.155 988.009C235.7 962.392 218.7 878.374 240.026 766.057C258.045 671.157 303.264 554.675 368.691 441.19L368.712 441.192Z"
    stroke="#00D8FF" stroke-width="30" />
  <path fill-rule="evenodd" clip-rule="evenodd"
    d="M368.871 638.74C303.874 526.482 259.622 412.832 241.15 318.513C218.915 204.872 234.636 117.985 279.411 92.0672C326.069 65.0554 414.345 96.3895 506.962 178.627C576.988 240.802 648.894 334.329 710.598 440.912C773.859 550.187 821.272 660.895 839.717 754.065C863.056 871.968 844.166 962.055 798.396 988.551C753.985 1014.26 672.717 987.04 586.06 912.469C512.843 849.466 434.51 752.114 368.871 638.738V638.74Z"
    stroke="#00D8FF" stroke-width="30" />
</svg>