<svg width="1080" height="1080" viewBox="0 0 1080 1080" fill="none" xmlns="http://www.w3.org/2000/svg">
  
  <path
    d="M88.8001 452.748L302.923 81.9389C307.658 73.7407 316.405 68.6906 325.872 68.6906L754.128 68.6906C763.595 68.6906 772.343 73.7408 777.077 81.9389L991.2 452.748C995.935 460.948 995.935 471.052 991.2 479.252L769.422 863.317C764.569 863.544 761.66 868.926 764.238 873.135L783.429 904.461C784.966 906.97 787.697 908.5 790.639 908.5C793.66 908.5 796.451 906.889 797.962 904.273L1041.37 482.752C1047.35 472.386 1047.35 459.614 1041.37 449.248L805.192 40.2479C799.207 29.8841 788.148 23.5 776.181 23.5L303.819 23.5C291.852 23.5 280.793 29.8841 274.808 40.2479L38.6319 449.248C32.646 459.614 32.646 472.386 38.6319 482.752L279.961 900.675C282.757 905.517 287.924 908.5 293.516 908.5C300.836 908.5 307.179 903.426 308.786 896.284L314.754 869.766C315.42 866.806 313.477 863.976 310.633 863.411L88.8001 479.252C84.065 471.052 84.065 460.948 88.8001 452.748Z"
    fill="url(#paint0_linear_1517_461)" stroke="#00D8FF" stroke-width="7" />
  <path
    d="M631.982 1064.79C631.032 1069.58 634.307 1073.51 639.251 1073.51H667.608C672.533 1073.51 677.359 1069.58 678.294 1064.79L685.852 1026.27C686.797 1021.48 691.609 1017.56 696.534 1017.56H727.24C744.74 1017.56 759.132 1015.74 770.454 1012.09C781.738 1008.46 792.017 1002.35 801.269 993.777C809.037 986.724 815.303 978.939 820.115 970.409C824.917 961.907 828.329 952.51 830.351 942.231C835.251 917.293 830.816 898.454 819.268 883.922C804.94 865.883 769.519 864.386 769.519 864.386C764.634 863.659 756.601 863.039 751.667 863.039H680.556C675.627 863.039 670.81 866.972 669.875 871.773L631.982 1064.79ZM743.115 896.255C760.703 896.255 772.427 899.476 778.306 905.905C784.146 912.333 785.546 923.377 782.482 939.009C779.27 955.3 773.127 966.94 763.978 973.901C754.829 980.857 731.176 983.376 731.176 983.376C726.276 983.909 718.224 984.34 713.275 984.34H703.054C698.11 984.34 694.859 980.412 695.794 975.621L709.657 904.984C710.607 900.189 715.414 896.255 720.348 896.255H743.115Z"
    stroke="#00D8FF" stroke-width="12" />
  <path
    d="M247.164 1064.79C246.215 1069.58 249.488 1073.51 254.424 1073.51H282.794C287.739 1073.51 292.543 1069.58 293.498 1064.79L301.053 1026.27C302.003 1021.48 306.797 1017.56 311.747 1017.56H342.449C359.959 1017.56 374.365 1015.74 385.661 1012.09C396.982 1008.46 407.245 1002.35 416.515 993.777C424.261 986.724 430.558 978.939 435.357 970.409C440.155 961.907 443.583 952.51 445.591 942.231C450.497 917.293 445.669 898.74 434.515 883.922C420.505 865.369 384.755 864.386 384.755 864.386C379.869 863.659 371.838 863.039 366.898 863.039H295.765C290.829 863.039 286.025 866.972 285.071 871.773L247.164 1064.79ZM358.319 896.255C375.932 896.255 387.649 899.476 393.52 905.905C399.377 912.333 400.782 923.377 397.722 939.009C394.505 955.3 388.335 966.94 379.198 973.901C370.061 980.857 346.4 983.376 346.4 983.376C341.479 983.909 333.42 984.34 328.489 984.34H318.274C313.339 984.34 310.053 980.412 311.003 975.621L324.88 904.984C325.82 900.189 330.633 896.255 335.564 896.255H358.319Z"
    stroke="#00D8FF" stroke-width="12" />
  <path
    d="M490.564 815.762C491.504 810.947 496.308 807 501.243 807H529.255C534.201 807 537.466 810.947 536.516 815.762L528.957 854.513C528.011 859.342 531.302 863.27 536.228 863.27H559.206C564.142 863.27 572.206 863.694 577.112 864.196C577.112 864.196 610.623 864.585 621.498 876.7C630.355 886.563 634.204 900.149 630.292 920.183L612.782 1009.94C611.847 1014.76 607.029 1018.71 602.089 1018.71H573.357C568.416 1018.71 565.141 1014.76 566.086 1009.94L580.961 933.798C581.901 928.979 582.958 921.021 583.321 916.109C583.321 916.109 583.982 907.098 580.363 903.234C576.76 899.355 569.063 897.425 557.302 897.425H529.549C524.604 897.425 519.815 901.363 518.855 906.187L498.619 1009.94C497.674 1014.76 492.87 1018.71 487.93 1018.71H459.913C454.972 1018.71 451.707 1014.76 452.647 1009.94L490.564 815.762Z"
    stroke="#00D8FF" stroke-width="12" />
  <path
    d="M247.164 1064.79C246.215 1069.58 249.488 1073.51 254.424 1073.51H282.794C287.739 1073.51 292.543 1069.58 293.498 1064.79L301.053 1026.27C302.003 1021.48 306.797 1017.56 311.747 1017.56H342.449C359.959 1017.56 374.365 1015.74 385.661 1012.09C396.982 1008.46 407.245 1002.35 416.515 993.777C424.261 986.724 430.558 978.939 435.357 970.409C440.155 961.907 443.583 952.51 445.591 942.231C450.497 917.293 445.669 898.74 434.515 883.922C420.505 865.369 384.755 864.386 384.755 864.386C379.869 863.659 371.838 863.039 366.898 863.039H295.765C290.829 863.039 286.025 866.972 285.071 871.773L247.164 1064.79ZM358.319 896.255C375.932 896.255 387.649 899.476 393.52 905.905C399.377 912.333 400.782 923.377 397.722 939.009C394.505 955.3 388.335 966.94 379.198 973.901C370.061 980.857 346.4 983.376 346.4 983.376C341.479 983.909 333.42 984.34 328.489 984.34H318.274C313.339 984.34 310.053 980.412 311.003 975.621L324.88 904.984C325.82 900.189 330.633 896.255 335.564 896.255H358.319Z"
    fill="#363254" />
  <path
    d="M490.564 815.762C491.504 810.947 496.308 807 501.243 807H529.255C534.201 807 537.466 810.947 536.516 815.762L528.957 854.513C528.011 859.342 531.302 863.27 536.228 863.27H559.206C564.142 863.27 572.206 863.694 577.112 864.196C577.112 864.196 610.623 864.585 621.498 876.7C630.355 886.563 634.204 900.149 630.292 920.183L612.782 1009.94C611.847 1014.76 607.029 1018.71 602.089 1018.71H573.357C568.416 1018.71 565.141 1014.76 566.086 1009.94L580.961 933.798C581.901 928.979 582.958 921.021 583.321 916.109C583.321 916.109 583.982 907.098 580.363 903.234C576.76 899.355 569.063 897.425 557.302 897.425H529.549C524.604 897.425 519.815 901.363 518.855 906.187L498.619 1009.94C497.674 1014.76 492.87 1018.71 487.93 1018.71H459.913C454.972 1018.71 451.707 1014.76 452.647 1009.94L490.564 815.762Z"
    fill="#363254" />
  <path
    d="M631.982 1064.79C631.032 1069.58 634.307 1073.51 639.251 1073.51H667.608C672.533 1073.51 677.359 1069.58 678.294 1064.79L685.852 1026.27C686.797 1021.48 691.609 1017.56 696.534 1017.56H727.24C744.74 1017.56 759.132 1015.74 770.454 1012.09C781.738 1008.46 792.017 1002.35 801.269 993.777C809.037 986.724 815.303 978.939 820.115 970.409C824.917 961.907 828.329 952.51 830.351 942.231C835.251 917.293 830.816 898.454 819.268 883.922C804.94 865.883 769.519 864.386 769.519 864.386C764.634 863.659 756.601 863.039 751.667 863.039H680.556C675.627 863.039 670.81 866.972 669.875 871.773L631.982 1064.79ZM743.115 896.255C760.703 896.255 772.427 899.476 778.306 905.905C784.146 912.333 785.546 923.377 782.482 939.009C779.27 955.3 773.127 966.94 763.978 973.901C754.829 980.857 731.176 983.376 731.176 983.376C726.276 983.909 718.224 984.34 713.275 984.34H703.054C698.11 984.34 694.859 980.412 695.794 975.621L709.657 904.984C710.607 900.189 715.414 896.255 720.348 896.255H743.115Z"
    fill="#363254" />
  <rect x="794.081" y="827.414" width="38.1537" height="59.8085" transform="rotate(30 794.081 827.414)"
    fill="#363254" />
  <rect x="288.851" y="832.461" width="61.726" height="38.2106" transform="rotate(60.5 288.851 832.461)"
    fill="#363254" />
  <defs>
    <linearGradient id="paint0_linear_1517_461" x1="540" y1="27" x2="545.787" y2="825.05"
      gradientUnits="userSpaceOnUse">
      <stop stop-color="#8C9BD6" />
      <stop offset="1" stop-color="#363254" />
    </linearGradient>
  </defs>
</svg>